<?xml version="1.0" standalone="no"?>
<!DOCTYPE svg PUBLIC "-//W3C//DTD SVG 20010904//EN"
 "http://www.w3.org/TR/2001/REC-SVG-20010904/DTD/svg10.dtd">
<svg version="1.0" xmlns="http://www.w3.org/2000/svg"
 width="1024.000000pt" height="1024.000000pt" viewBox="0 0 1024.000000 1024.000000"
 preserveAspectRatio="xMidYMid meet">

<g transform="translate(0.000000,1024.000000) scale(0.100000,-0.100000)"
fill="#000000" stroke="none">
<path d="M1570 6013 c-75 -9 -165 -35 -238 -68 -458 -212 -593 -806 -273
-1201 209 -258 604 -348 909 -208 200 91 349 255 418 459 22 65 28 104 32 205
7 189 -31 327 -133 480 -152 229 -442 364 -715 333z m-51 -553 c68 -99 126
-182 130 -185 4 -2 64 79 132 180 l124 184 68 1 67 0 0 -405 0 -405 -75 0 -75
0 -2 251 -3 250 -115 -165 c-63 -91 -117 -166 -120 -165 -3 0 -57 75 -120 167
l-115 166 -3 -252 -2 -252 -75 0 -75 0 0 405 0 405 68 0 68 0 123 -180z"/>
<path d="M7497 5660 c-107 -19 -157 -83 -157 -200 1 -112 31 -156 183 -259
100 -68 119 -90 125 -150 4 -43 1 -53 -21 -75 -20 -20 -36 -26 -70 -26 -55 0
-77 23 -84 85 l-6 45 -65 0 -64 0 4 -57 c5 -72 31 -126 72 -156 25 -17 48 -23
114 -26 109 -4 145 4 188 41 47 41 64 87 64 170 0 109 -30 155 -153 232 -117
74 -157 124 -157 194 0 51 26 75 84 76 59 1 84 -22 92 -85 l7 -49 63 0 c63 0
64 0 64 28 -1 87 -46 173 -104 197 -44 18 -123 25 -179 15z"/>
<path d="M4090 5653 l-95 -4 3 -399 c2 -308 5 -400 15 -401 6 0 35 -1 62 -2
l50 -2 3 158 3 157 28 0 c27 0 29 -4 77 -152 l50 -153 73 -3 c67 -3 73 -1 66
15 -3 10 -32 85 -63 166 l-56 148 36 29 c47 39 68 101 68 199 0 91 -13 141
-45 179 -48 57 -106 71 -275 65z m167 -135 c15 -16 18 -37 18 -110 0 -86 -1
-91 -28 -114 -21 -18 -40 -24 -73 -24 l-44 0 0 138 0 137 54 -3 c39 -3 60 -10
73 -24z"/>
<path d="M4840 5488 l0 -168 -87 0 -88 0 3 165 3 165 -68 0 -68 0 0 -400 0
-400 68 0 68 0 -2 173 -1 172 86 3 86 3 0 -176 0 -175 65 0 65 0 0 406 0 405
-65 -3 -65 -3 0 -167z"/>
<path d="M5223 5649 c-45 -13 -96 -67 -111 -116 -8 -27 -12 -124 -12 -294 0
-226 3 -258 19 -294 36 -79 85 -105 194 -105 84 0 140 22 179 68 48 58 53 88
53 352 0 232 -1 247 -22 285 -26 48 -68 90 -106 104 -34 13 -149 13 -194 0z
m158 -128 l29 -29 0 -242 0 -242 -29 -29 c-20 -20 -39 -29 -61 -29 -22 0 -41
9 -61 29 l-29 29 0 234 c1 249 4 268 51 294 38 21 68 16 100 -15z"/>
<path d="M6337 5646 c-52 -19 -76 -42 -103 -101 -23 -48 -24 -59 -24 -289 0
-261 5 -293 53 -352 40 -48 81 -64 170 -64 118 0 189 49 217 149 13 47 13 475
0 522 -27 98 -100 149 -210 149 -36 -1 -82 -7 -103 -14z m137 -107 c49 -23 56
-58 56 -281 0 -111 -5 -220 -10 -240 -24 -86 -132 -94 -166 -13 -21 51 -20
444 1 485 28 54 70 71 119 49z"/>
<path d="M6780 5255 l0 -405 138 0 c157 0 195 12 249 73 50 58 55 87 51 354
l-3 241 -30 43 c-19 27 -50 54 -84 71 -51 27 -60 28 -187 28 l-134 0 0 -405z
m281 256 c24 -19 24 -19 24 -256 l0 -237 -28 -24 c-23 -20 -39 -24 -88 -24
l-59 0 0 280 0 280 64 0 c48 0 70 -5 87 -19z"/>
<path d="M9040 5255 l0 -405 65 0 65 0 0 405 0 405 -65 0 -65 0 0 -405z"/>
<path d="M2720 5250 l0 -400 60 0 60 0 0 267 c0 146 2 264 5 261 3 -3 26 -81
51 -174 24 -93 49 -186 55 -206 10 -38 10 -38 63 -38 l53 0 52 188 c29 103 56
198 61 212 5 15 9 -79 9 -242 l1 -268 60 0 60 0 0 400 0 400 -83 0 -82 0 -59
-217 c-33 -120 -62 -224 -66 -231 -5 -11 -63 179 -122 401 l-12 47 -83 0 -83
0 0 -400z"/>
<path d="M3420 5644 c0 -4 38 -113 85 -243 l85 -237 0 -157 0 -157 65 0 65 0
0 154 0 154 84 229 c47 125 88 236 91 246 6 15 0 17 -61 17 l-69 0 -44 -128
c-74 -212 -62 -207 -114 -46 -26 77 -49 148 -53 157 -5 14 -19 17 -70 17 -35
0 -64 -3 -64 -6z"/>
<path d="M5670 5252 l0 -400 65 -4 65 -3 0 158 0 158 32 -3 32 -3 49 -152 49
-153 73 0 73 0 -64 166 -64 165 31 27 c52 43 69 93 69 205 0 114 -17 158 -77
204 -36 27 -40 28 -185 31 l-148 3 0 -399z m260 261 c16 -20 20 -41 20 -99 0
-113 -24 -144 -110 -144 l-40 0 0 138 0 137 55 -3 c45 -3 59 -9 75 -29z"/>
<path d="M7910 5250 l0 -400 65 0 65 0 0 131 c0 117 2 134 23 169 12 22 24 40
27 40 3 0 36 -77 74 -170 l69 -170 79 0 c43 0 78 2 78 4 0 1 -49 105 -110 229
l-109 226 58 103 c32 57 74 133 95 171 l37 67 -73 0 -73 0 -75 -137 c-41 -75
-80 -143 -87 -152 -10 -13 -12 14 -13 137 l0 152 -65 0 -65 0 0 -400z"/>
<path d="M8450 5640 c0 -6 38 -115 85 -244 l85 -234 0 -156 0 -156 65 0 65 0
0 158 0 157 89 243 89 242 -67 0 -67 0 -53 -155 c-30 -85 -55 -155 -56 -155
-2 0 -27 70 -55 155 l-52 155 -64 0 c-36 0 -64 -4 -64 -10z"/>
</g>
</svg>
